<svg xmlns="http://www.w3.org/2000/svg" width="23.304" height="23.304" viewBox="0 0 23.304 23.304">
  <path id="bedtime_24dp_FFFFFF_FILL1_wght400_GRAD0_opsz24" d="M91.768-856.7a11.368,11.368,0,0,1-4.588-.932,11.978,11.978,0,0,1-3.729-2.52,11.975,11.975,0,0,1-2.52-3.729A11.367,11.367,0,0,1,80-868.465a11.368,11.368,0,0,1,2.709-7.5,11.48,11.48,0,0,1,6.9-4.034,11.768,11.768,0,0,0,.32,5.637,11.5,11.5,0,0,0,2.913,4.821,11.5,11.5,0,0,0,4.821,2.913,11.768,11.768,0,0,0,5.637.32,11.32,11.32,0,0,1-4.02,6.9A11.423,11.423,0,0,1,91.768-856.7Z" transform="translate(-80 880)" fill="#424242"/>
</svg>
