<svg xmlns="http://www.w3.org/2000/svg" width="32.145" height="32.145" viewBox="0 0 32.145 32.145" fill="#e3e3e3">
  <path id="light_mode_24dp_FFFFFF_FILL1_wght400_GRAD0_opsz24" d="M56.072-896.622a7.041,7.041,0,0,1-5.169-2.137,7.041,7.041,0,0,1-2.137-5.169A7.041,7.041,0,0,1,50.9-909.1a7.041,7.041,0,0,1,5.169-2.137,7.041,7.041,0,0,1,5.169,2.137,7.041,7.041,0,0,1,2.137,5.169,7.041,7.041,0,0,1-2.137,5.169A7.041,7.041,0,0,1,56.072-896.622Zm-10.228-5.844H40v-2.922h5.844Zm26.3,0H66.3v-2.922h5.844ZM54.611-914.155V-920h2.922v5.844Zm0,26.3V-893.7h2.922v5.844ZM47.89-910.137,44.2-913.681l2.082-2.155,3.507,3.653Zm17.972,18.118-3.543-3.689,1.936-2.009,3.689,3.543Zm-3.58-20.09,3.543-3.689,2.155,2.082-3.653,3.507ZM44.164-894.138l3.689-3.543,2.009,1.936-3.543,3.689Z" transform="translate(-40 920)"/>
</svg>
