<svg xmlns="http://www.w3.org/2000/svg" width="208.788" height="122.369" viewBox="0 0 208.788 122.369" fill="#2a3c56">
  <g id="logo_sipub_full" transform="translate(-0.004 0.004)">
    <g id="SipuB" transform="translate(81.809 24.94)">
      <g id="SipuB-2" data-name="SipuB">
        <path id="Caminho_236" data-name="Caminho 236" d="M475.788,169.458a14.148,14.148,0,0,0-3.549-1.763,46.269,46.269,0,0,0-4.66-1.33q-2.057-.521-2.953-.791a9.234,9.234,0,0,1-1.766-.747,4.2,4.2,0,0,1-1.373-1.144,2.555,2.555,0,0,1-.5-1.58,3.071,3.071,0,0,1,1.466-2.534,6.423,6.423,0,0,1,3.856-1.051,5.845,5.845,0,0,1,3.742.965,7.846,7.846,0,0,1,1.991,2.684,7.19,7.19,0,0,0,1.193,1.745,2.212,2.212,0,0,0,1.607.532,2.481,2.481,0,0,0,1.938-.883,2.93,2.93,0,0,0,.778-1.991,5.574,5.574,0,0,0-.624-2.472,7.737,7.737,0,0,0-1.973-2.42,10.263,10.263,0,0,0-3.39-1.831,15.159,15.159,0,0,0-4.85-.7,16.236,16.236,0,0,0-6.106,1.05,8.64,8.64,0,0,0-3.967,3,7.6,7.6,0,0,0-1.37,4.466,7.288,7.288,0,0,0,1.3,4.416,8.9,8.9,0,0,0,3.511,2.805,28.738,28.738,0,0,0,5.494,1.8q2.454.561,3.92,1.06a5.959,5.959,0,0,1,2.391,1.448,3.361,3.361,0,0,1,.925,2.463,3.847,3.847,0,0,1-1.716,3.19,7.26,7.26,0,0,1-4.459,1.278,7.05,7.05,0,0,1-3.221-.633,5.109,5.109,0,0,1-1.9-1.611,12.407,12.407,0,0,1-1.258-2.432,4.908,4.908,0,0,0-1.151-1.849,2.353,2.353,0,0,0-1.651-.624,2.695,2.695,0,0,0-2.76,2.715,7.449,7.449,0,0,0,1.3,3.981,9.9,9.9,0,0,0,3.371,3.268,14.66,14.66,0,0,0,7.436,1.7,15.629,15.629,0,0,0,6.5-1.243,9.435,9.435,0,0,0,4.162-3.438A8.927,8.927,0,0,0,478.888,176a8.425,8.425,0,0,0-.82-3.9A7.26,7.26,0,0,0,475.788,169.458Zm14.89-14.371a2.977,2.977,0,0,0-1.954-.706,2.906,2.906,0,0,0-2.009.78,2.829,2.829,0,0,0-.022,4.048,3.006,3.006,0,0,0,2.031.724,2.881,2.881,0,0,0,1.976-.744,2.6,2.6,0,0,0,.833-2.047A2.517,2.517,0,0,0,490.678,155.087Zm-2.018,7.476a2.627,2.627,0,0,0-2.029.852,3.626,3.626,0,0,0-.78,2.534v16.224a3.77,3.77,0,0,0,.78,2.555,2.564,2.564,0,0,0,2.029.892,2.685,2.685,0,0,0,2.059-.872,3.648,3.648,0,0,0,.813-2.575V165.785a3.294,3.294,0,0,0-.813-2.369A2.727,2.727,0,0,0,488.66,162.563Zm28.13,1.4a9.048,9.048,0,0,0-4.819-1.35,8.143,8.143,0,0,0-3.907.918,11.248,11.248,0,0,0-3.324,2.9v-.686a3.333,3.333,0,0,0-.758-2.353,2.561,2.561,0,0,0-1.967-.822,2.45,2.45,0,0,0-1.935.8,3.563,3.563,0,0,0-.708,2.42v24.476a6.081,6.081,0,0,0,.519,2.814,2.186,2.186,0,0,0,2.123.966q2.725,0,2.725-3.741v-8.516a11.629,11.629,0,0,0,3.149,2.865,7.9,7.9,0,0,0,4.083.974,9,9,0,0,0,3.77-.8,8.82,8.82,0,0,0,3.044-2.293,10.782,10.782,0,0,0,2.023-3.668,14.978,14.978,0,0,0,.737-4.808,13.819,13.819,0,0,0-1.278-6.153A9.218,9.218,0,0,0,516.79,163.966Zm-1.65,14a5.611,5.611,0,0,1-1.935,2.461,4.567,4.567,0,0,1-2.62.82,5.036,5.036,0,0,1-3.981-1.88A7.824,7.824,0,0,1,505,174.1a8.071,8.071,0,0,1,1.611-5.444,5.049,5.049,0,0,1,3.963-1.848,4.56,4.56,0,0,1,2.693.861,5.663,5.663,0,0,1,1.9,2.472,11.243,11.243,0,0,1-.033,7.822Zm30.314-15.4a2.665,2.665,0,0,0-2.049.852,3.61,3.61,0,0,0-.786,2.534v6.9a17.883,17.883,0,0,1-.478,5.277,4.977,4.977,0,0,1-1.848,2.222,4.75,4.75,0,0,1-2.7.851,3.414,3.414,0,0,1-2.335-.756,3.982,3.982,0,0,1-1.194-2.1,14.055,14.055,0,0,1-.333-3.314v-9.077a3.609,3.609,0,0,0-.791-2.534,2.714,2.714,0,0,0-2.081-.852,2.628,2.628,0,0,0-2.038.841,3.642,3.642,0,0,0-.776,2.544v11.238a10.371,10.371,0,0,0,1.06,5.192,6.228,6.228,0,0,0,2.534,2.353,7.862,7.862,0,0,0,3.688.851,9.983,9.983,0,0,0,3.033-.433,7.894,7.894,0,0,0,2.452-1.3,12.721,12.721,0,0,0,2.141-2.157v.724a3.392,3.392,0,0,0,.755,2.353,2.608,2.608,0,0,0,3.8.031,3.513,3.513,0,0,0,.735-2.43V165.949a3.681,3.681,0,0,0-.766-2.544A2.611,2.611,0,0,0,545.454,162.563Zm30.222,6.417q4.572-2.114,4.571-6.678a7.257,7.257,0,0,0-.436-2.519,7.163,7.163,0,0,0-1.267-2.172,7.551,7.551,0,0,0-1.911-1.629,8.047,8.047,0,0,0-2.869-1.039,22.9,22.9,0,0,0-3.781-.271h-9.866a3.917,3.917,0,0,0-2.858.883,3.994,3.994,0,0,0-.883,2.9v22.875a4.054,4.054,0,0,0,.863,2.876,3.858,3.858,0,0,0,2.876.9h9.307a32.3,32.3,0,0,0,4.219-.239,12.487,12.487,0,0,0,3.2-.822,7.843,7.843,0,0,0,3.533-3.022,8.364,8.364,0,0,0,1.31-4.6q.009-5.529-6-7.441Zm-13.147-9.675h5.015a12.6,12.6,0,0,1,5.015.756,3.02,3.02,0,0,1,1.645,3.053,3.713,3.713,0,0,1-.523,1.945,3.4,3.4,0,0,1-1.925,1.656,11.405,11.405,0,0,1-3.567.434h-5.659Zm6.636,21.161h-6.636v-8.886h6.428a9.1,9.1,0,0,1,4.848,1.039,3.683,3.683,0,0,1,1.629,3.343q0,4.5-6.26,4.5Z" transform="translate(-454.7 -154.15)"/>
      </g>
    </g>
    <g id="Sistema_de" data-name="Sistema de" transform="translate(83.894 71.515)">
      <g id="Sistema_de-2" data-name="Sistema de">
        <path id="Caminho_237" data-name="Caminho 237" d="M472.514,416.077a4.191,4.191,0,0,0-1.059-.525,13.55,13.55,0,0,0-1.388-.4c-.409-.1-.7-.181-.878-.235a2.854,2.854,0,0,1-.527-.223,1.215,1.215,0,0,1-.407-.34.759.759,0,0,1-.15-.471.9.9,0,0,1,.436-.751,1.931,1.931,0,0,1,1.147-.313,1.738,1.738,0,0,1,1.115.288,2.354,2.354,0,0,1,.594.8,2.107,2.107,0,0,0,.362.516.669.669,0,0,0,.48.157.739.739,0,0,0,.579-.262.872.872,0,0,0,.232-.59,1.651,1.651,0,0,0-.181-.737,2.279,2.279,0,0,0-.586-.724,3.034,3.034,0,0,0-1.012-.543,4.47,4.47,0,0,0-1.448-.208,4.845,4.845,0,0,0-1.833.309,2.582,2.582,0,0,0-1.182.894,2.26,2.26,0,0,0-.407,1.33,2.171,2.171,0,0,0,.385,1.314,2.648,2.648,0,0,0,1.046.834,8.459,8.459,0,0,0,1.629.543c.487.11.876.217,1.165.315a1.767,1.767,0,0,1,.711.431,1,1,0,0,1,.275.733,1.141,1.141,0,0,1-.51.948,2.151,2.151,0,0,1-1.326.382,2.083,2.083,0,0,1-.959-.181,1.508,1.508,0,0,1-.565-.478,3.779,3.779,0,0,1-.375-.724,1.483,1.483,0,0,0-.344-.543.7.7,0,0,0-.492-.181.8.8,0,0,0-.822.811,2.209,2.209,0,0,0,.385,1.184,2.963,2.963,0,0,0,1.006.975,4.386,4.386,0,0,0,2.215.507,4.658,4.658,0,0,0,1.935-.371A2.816,2.816,0,0,0,473,419.527a2.66,2.66,0,0,0,.424-1.478,2.5,2.5,0,0,0-.244-1.158A2.171,2.171,0,0,0,472.514,416.077Zm3.853-4.484a.869.869,0,0,0-.6.232.84.84,0,0,0,0,1.2.886.886,0,0,0,.6.217.86.86,0,0,0,.588-.221.769.769,0,0,0,.246-.608.751.751,0,0,0-.253-.613.885.885,0,0,0-.59-.21Zm-.018,2.438a.785.785,0,0,0-.6.253,1.085,1.085,0,0,0-.232.755v4.83a1.126,1.126,0,0,0,.232.762.766.766,0,0,0,.6.266.8.8,0,0,0,.612-.261,1.086,1.086,0,0,0,.241-.767v-4.886a.979.979,0,0,0-.241-.706.812.812,0,0,0-.615-.246Zm7.657,3.2a5.6,5.6,0,0,0-1.285-.458c-.44-.107-.787-.2-1.039-.271a1.867,1.867,0,0,1-.6-.281.526.526,0,0,1-.223-.436.566.566,0,0,1,.3-.487,1.381,1.381,0,0,1,.762-.194,1.413,1.413,0,0,1,.7.148,1.512,1.512,0,0,1,.452.395,2.776,2.776,0,0,0,.416.445.68.68,0,0,0,.443.148.775.775,0,0,0,.554-.181.632.632,0,0,0,.194-.476,1,1,0,0,0-.181-.543,1.81,1.81,0,0,0-.532-.507,2.916,2.916,0,0,0-.872-.362,4.7,4.7,0,0,0-1.178-.136,3.392,3.392,0,0,0-1.426.27,2.059,2.059,0,0,0-.894.724,1.686,1.686,0,0,0-.3.959,1.448,1.448,0,0,0,.327.957,2.319,2.319,0,0,0,.876.628,9,9,0,0,0,1.421.454,4.227,4.227,0,0,1,1.109.391.7.7,0,0,1,.338.637.632.632,0,0,1-.324.516,1.429,1.429,0,0,1-.832.226,1.873,1.873,0,0,1-.986-.223,1.836,1.836,0,0,1-.621-.675,1.387,1.387,0,0,0-.273-.362.584.584,0,0,0-.407-.13.679.679,0,0,0-.5.2.651.651,0,0,0-.2.476,1.4,1.4,0,0,0,.309.838,2.281,2.281,0,0,0,.959.7,3.924,3.924,0,0,0,1.558.279,4.524,4.524,0,0,0,1.618-.257,2.1,2.1,0,0,0,1.006-.755,2.073,2.073,0,0,0,.34-1.2,1.406,1.406,0,0,0-.257-.827,2.152,2.152,0,0,0-.76-.63Zm6.406,2.253a1.985,1.985,0,0,0-.395.052,2.181,2.181,0,0,1-.4.052.51.51,0,0,1-.393-.134.637.637,0,0,1-.148-.346,5.191,5.191,0,0,1-.027-.61v-3.1h.315a1.752,1.752,0,0,0,.771-.136.489.489,0,0,0,.27-.476.56.56,0,0,0-.19-.436.786.786,0,0,0-.543-.17h-.619v-1.151a3.574,3.574,0,0,0-.047-.659.712.712,0,0,0-.219-.393.834.834,0,0,0-.581-.241.8.8,0,0,0-.414.109.742.742,0,0,0-.284.281.935.935,0,0,0-.121.4c-.014.154-.022.362-.022.639v1.015h-.181a.88.88,0,0,0-.585.17.543.543,0,0,0-.2.436.572.572,0,0,0,.192.44.813.813,0,0,0,.557.172h.21v3.241a4.965,4.965,0,0,0,.127,1.256,1.234,1.234,0,0,0,.543.737,2.208,2.208,0,0,0,1.2.266,3,3,0,0,0,1.279-.217.679.679,0,0,0,.445-.624.543.543,0,0,0-.163-.405.512.512,0,0,0-.376-.17Zm7.525-1.8c.243-.127.362-.4.362-.827a2.835,2.835,0,0,0-.362-1.348,2.744,2.744,0,0,0-1.06-1.086,3.289,3.289,0,0,0-1.7-.418,3.772,3.772,0,0,0-1.384.244,2.809,2.809,0,0,0-1.052.7,3.078,3.078,0,0,0-.65,1.1,4.194,4.194,0,0,0-.223,1.388,3.448,3.448,0,0,0,.9,2.517,3.385,3.385,0,0,0,2.534.928,3.873,3.873,0,0,0,1.258-.181,3.076,3.076,0,0,0,.9-.467,2.128,2.128,0,0,0,.543-.586,1.1,1.1,0,0,0,.181-.543.509.509,0,0,0-.161-.4.606.606,0,0,0-.42-.143.543.543,0,0,0-.371.112c-.212.2-.382.362-.514.469a3.784,3.784,0,0,1-.433.326,1.776,1.776,0,0,1-.487.223,2.033,2.033,0,0,1-.554.071,1.549,1.549,0,0,1-1.424-.885,2.231,2.231,0,0,1-.233-1.013h3.3a2.287,2.287,0,0,0,1.032-.179Zm-4.331-.771a2.177,2.177,0,0,1,.492-1.29,1.355,1.355,0,0,1,1.037-.436,1.4,1.4,0,0,1,1.066.431,2.046,2.046,0,0,1,.467,1.3Zm15.352-2.6a2.463,2.463,0,0,0-1.193-.271,2.353,2.353,0,0,0-1.086.25,2.91,2.91,0,0,0-.9.771,1.991,1.991,0,0,0-.755-.767,2.22,2.22,0,0,0-1.095-.253,2.489,2.489,0,0,0-1.115.246,2.97,2.97,0,0,0-.939.775v-.161a.866.866,0,0,0-.232-.641.79.79,0,0,0-.579-.232.733.733,0,0,0-.579.248,1.062,1.062,0,0,0-.219.724v4.832a1.144,1.144,0,0,0,.244.794.812.812,0,0,0,.628.27.8.8,0,0,0,.628-.27,1.162,1.162,0,0,0,.239-.794v-2.287a3.989,3.989,0,0,1,.262-1.629,1.079,1.079,0,0,1,1.086-.568.755.755,0,0,1,.606.226,1.064,1.064,0,0,1,.235.577,8.606,8.606,0,0,1,.043.99v2.691a1.171,1.171,0,0,0,.237.8.8.8,0,0,0,.622.266.818.818,0,0,0,.637-.266,1.152,1.152,0,0,0,.241-.8v-2.251a4.307,4.307,0,0,1,.181-1.509,1.332,1.332,0,0,1,.467-.532,1.127,1.127,0,0,1,.633-.2.8.8,0,0,1,.619.223,1,1,0,0,1,.25.543,6.229,6.229,0,0,1,.047.872v2.839a1.144,1.144,0,0,0,.244.794.882.882,0,0,0,1.267,0,1.153,1.153,0,0,0,.241-.8v-3.286a3.658,3.658,0,0,0-.215-1.448A1.727,1.727,0,0,0,508.958,414.318Zm9.049,4.236v-1.929a3.641,3.641,0,0,0-.262-1.509,1.629,1.629,0,0,0-.9-.832,4.708,4.708,0,0,0-1.75-.263,4.438,4.438,0,0,0-1.663.271,2.27,2.27,0,0,0-.984.693,1.434,1.434,0,0,0-.315.867.593.593,0,0,0,.206.467.724.724,0,0,0,.492.181.53.53,0,0,0,.411-.116,5.487,5.487,0,0,0,.329-.472,1.569,1.569,0,0,1,.556-.543,2.058,2.058,0,0,1,.968-.181,1.2,1.2,0,0,1,.986.313,1.752,1.752,0,0,1,.27.981q-.532.156-.986.262t-1.086.239c-.425.087-.691.141-.8.167a2.191,2.191,0,0,0-1.207.655,1.7,1.7,0,0,0-.44,1.182,1.809,1.809,0,0,0,.266.952,1.886,1.886,0,0,0,.758.7,2.446,2.446,0,0,0,1.142.257,3.3,3.3,0,0,0,1.283-.239,5.16,5.16,0,0,0,1.186-.715,3.53,3.53,0,0,0,.543.709.745.745,0,0,0,.514.244.82.82,0,0,0,.554-.214.63.63,0,0,0,.244-.474,3.2,3.2,0,0,0-.159-.664,3.4,3.4,0,0,1-.161-.99Zm-1.645-.809a2.631,2.631,0,0,1-.228,1.267,1.469,1.469,0,0,1-.623.566,1.973,1.973,0,0,1-.925.219,1.075,1.075,0,0,1-.76-.27.856.856,0,0,1-.291-.652.725.725,0,0,1,.248-.579,1.366,1.366,0,0,1,.52-.279q.272-.071.981-.223a8.681,8.681,0,0,0,1.086-.288Zm13.229-6.224a.7.7,0,0,0-.59.266,1.267,1.267,0,0,0-.208.785v2.494a3.386,3.386,0,0,0-.977-.771,2.734,2.734,0,0,0-1.23-.25,2.574,2.574,0,0,0-2.034.883,3.625,3.625,0,0,0-.775,2.468,4.765,4.765,0,0,0,.2,1.392,3.344,3.344,0,0,0,.572,1.12,2.644,2.644,0,0,0,.894.733,2.5,2.5,0,0,0,1.124.257,2.73,2.73,0,0,0,.843-.127,2.56,2.56,0,0,0,.724-.362,4.3,4.3,0,0,0,.67-.635v.152a1.028,1.028,0,0,0,.226.713.735.735,0,0,0,.572.252.753.753,0,0,0,.575-.241,1.038,1.038,0,0,0,.223-.724v-7.445a1.085,1.085,0,0,0-.206-.724.735.735,0,0,0-.606-.241Zm-1.109,7.128a1.584,1.584,0,0,1-.588.711,1.482,1.482,0,0,1-.812.233,1.448,1.448,0,0,1-.811-.244,1.628,1.628,0,0,1-.585-.724,2.87,2.87,0,0,1-.214-1.169,3.015,3.015,0,0,1,.2-1.142,1.683,1.683,0,0,1,.566-.755,1.39,1.39,0,0,1,.829-.263,1.416,1.416,0,0,1,.82.257,1.745,1.745,0,0,1,.594.742,2.8,2.8,0,0,1,.219,1.16,2.865,2.865,0,0,1-.228,1.189Zm9.66-.071a.558.558,0,0,0-.371.112c-.21.2-.382.362-.512.469a3.68,3.68,0,0,1-.434.326,1.771,1.771,0,0,1-.485.223,2.033,2.033,0,0,1-.554.071,1.552,1.552,0,0,1-1.426-.885,2.23,2.23,0,0,1-.232-1.013h3.3a2.3,2.3,0,0,0,1.028-.181q.362-.181.362-.827a2.854,2.854,0,0,0-.351-1.348,2.748,2.748,0,0,0-1.062-1.086,3.279,3.279,0,0,0-1.7-.418,3.788,3.788,0,0,0-1.386.244,2.821,2.821,0,0,0-1.051.7,3.078,3.078,0,0,0-.648,1.1,4.2,4.2,0,0,0-.224,1.388,3.448,3.448,0,0,0,.9,2.517,3.384,3.384,0,0,0,2.534.928,3.89,3.89,0,0,0,1.267-.181,3.031,3.031,0,0,0,.9-.467,2.137,2.137,0,0,0,.543-.586,1.105,1.105,0,0,0,.181-.543.509.509,0,0,0-.161-.4.608.608,0,0,0-.44-.145Zm-3.522-2.948a1.354,1.354,0,0,1,1.035-.436,1.4,1.4,0,0,1,1.068.431,2.047,2.047,0,0,1,.467,1.3h-3.071a2.184,2.184,0,0,1,.492-1.294Z" transform="translate(-466.22 -411.516)"  />
      </g>
    </g>
    <g id="Informação" transform="translate(84.976 85.488)">
      <g id="Informação-2" data-name="Informação">
        <path id="Caminho_238" data-name="Caminho 238" d="M473.112,488.726a.842.842,0,0,0-.655.279,1.2,1.2,0,0,0-.253.834v7.145a1.2,1.2,0,0,0,.257.838.838.838,0,0,0,.651.28.874.874,0,0,0,.681-.28,1.2,1.2,0,0,0,.257-.841v-7.141a1.187,1.187,0,0,0-.257-.838A.872.872,0,0,0,473.112,488.726Zm9.2,3.619a1.847,1.847,0,0,0-.785-.823,2.433,2.433,0,0,0-1.194-.292,2.58,2.58,0,0,0-1.214.277,2.952,2.952,0,0,0-.983.867v-.2a1.131,1.131,0,0,0-.107-.514.741.741,0,0,0-.288-.315.783.783,0,0,0-.4-.107.724.724,0,0,0-.574.239,1.056,1.056,0,0,0-.212.724v4.886a1.116,1.116,0,0,0,.235.76.765.765,0,0,0,.6.266.8.8,0,0,0,.615-.255,1.1,1.1,0,0,0,.237-.771v-2.125a5.248,5.248,0,0,1,.125-1.41,1.549,1.549,0,0,1,.543-.74,1.364,1.364,0,0,1,.822-.268.944.944,0,0,1,.925.442,2.8,2.8,0,0,1,.232,1.278v2.814a1.116,1.116,0,0,0,.235.76.781.781,0,0,0,.613.266.771.771,0,0,0,.6-.259,1.124,1.124,0,0,0,.232-.767v-3.142a7.017,7.017,0,0,0-.049-.916,1.968,1.968,0,0,0-.208-.668Zm5.044-3.619a3.28,3.28,0,0,0-1.314.214,1.267,1.267,0,0,0-.68.681,3.245,3.245,0,0,0-.2,1.258v.507h-.4q-.851,0-.849.606a.543.543,0,0,0,.2.443.89.89,0,0,0,.581.17h.465v4.472a1.105,1.105,0,0,0,.237.764.773.773,0,0,0,.6.262.791.791,0,0,0,.615-.262,1.1,1.1,0,0,0,.239-.764V492.6h.414a1.812,1.812,0,0,0,.708-.112c.172-.074.257-.25.257-.525,0-.387-.322-.583-.965-.583h-.414v-.4a1.81,1.81,0,0,1,.13-.769c.085-.181.282-.27.586-.27a2.711,2.711,0,0,1,.409.038,2.755,2.755,0,0,0,.34.036.486.486,0,0,0,.362-.166.582.582,0,0,0,.154-.4q0-.724-1.466-.724Zm7.635,3.464a3.015,3.015,0,0,0-1.07-.706,4.02,4.02,0,0,0-2.771,0,2.973,2.973,0,0,0-1.064.7,3.055,3.055,0,0,0-.675,1.086,4.04,4.04,0,0,0-.235,1.4,3.966,3.966,0,0,0,.233,1.39,3.04,3.04,0,0,0,1.741,1.8,3.649,3.649,0,0,0,1.379.246,3.76,3.76,0,0,0,1.392-.244,2.993,2.993,0,0,0,1.064-.7,3.076,3.076,0,0,0,.681-1.095,4.265,4.265,0,0,0,0-2.783A3.058,3.058,0,0,0,494.991,492.19Zm-1.24,4.079a1.477,1.477,0,0,1-1.221.579,1.493,1.493,0,0,1-.881-.264,1.659,1.659,0,0,1-.576-.757,3.439,3.439,0,0,1,0-2.327,1.629,1.629,0,0,1,.581-.757,1.509,1.509,0,0,1,.872-.257,1.479,1.479,0,0,1,1.222.575,3.068,3.068,0,0,1,0,3.207Zm8.238-4.767a2.17,2.17,0,0,0-1.031-.266,1.284,1.284,0,0,0-.851.266,2.957,2.957,0,0,0-.622.785,1.46,1.46,0,0,0-.2-.785.686.686,0,0,0-.606-.266q-.822,0-.822,1.138v4.705a1.106,1.106,0,0,0,.235.767.766.766,0,0,0,.6.259.808.808,0,0,0,.613-.255,1.1,1.1,0,0,0,.241-.771v-1.41c0-.508.016-.937.049-1.29a3.977,3.977,0,0,1,.181-.9,1.254,1.254,0,0,1,.362-.579.923.923,0,0,1,.606-.194,2.091,2.091,0,0,1,.628.114,2.119,2.119,0,0,0,.449.114.659.659,0,0,0,.46-.2.668.668,0,0,0,.214-.51A.8.8,0,0,0,501.989,491.5Zm10.661.02a2.457,2.457,0,0,0-1.194-.273,2.319,2.319,0,0,0-1.086.252,2.928,2.928,0,0,0-.916.769,1.989,1.989,0,0,0-.755-.767,2.228,2.228,0,0,0-1.086-.253,2.487,2.487,0,0,0-1.113.248,2.947,2.947,0,0,0-.941.773v-.161a.857.857,0,0,0-.232-.639.78.78,0,0,0-.577-.233.74.74,0,0,0-.579.248,1.058,1.058,0,0,0-.219.724v4.83a1.149,1.149,0,0,0,.244.8.87.87,0,0,0,1.256,0,1.177,1.177,0,0,0,.237-.8v-2.282a4.009,4.009,0,0,1,.262-1.629,1.08,1.08,0,0,1,1.086-.57.757.757,0,0,1,.606.226,1.085,1.085,0,0,1,.235.579,8.579,8.579,0,0,1,.044.99v2.689a1.162,1.162,0,0,0,.237.8.8.8,0,0,0,.622.266.821.821,0,0,0,.637-.266,1.152,1.152,0,0,0,.241-.8V494.8a4.308,4.308,0,0,1,.181-1.509,1.332,1.332,0,0,1,.467-.532,1.129,1.129,0,0,1,.633-.2.8.8,0,0,1,.619.223,1.01,1.01,0,0,1,.25.543,6.53,6.53,0,0,1,.047.872v2.838a1.149,1.149,0,0,0,.244.8.808.808,0,0,0,.628.268.817.817,0,0,0,.637-.266,1.152,1.152,0,0,0,.241-.8v-3.29a3.615,3.615,0,0,0-.217-1.448A1.728,1.728,0,0,0,512.65,491.522Zm9.039,4.237c0-.338,0-.646.009-.921s0-.613,0-1.008a3.62,3.62,0,0,0-.264-1.509,1.63,1.63,0,0,0-.9-.833,4.709,4.709,0,0,0-1.75-.262,4.454,4.454,0,0,0-1.665.272,2.247,2.247,0,0,0-.983.693,1.429,1.429,0,0,0-.315.865.593.593,0,0,0,.206.467.713.713,0,0,0,.492.181.544.544,0,0,0,.411-.114,5.46,5.46,0,0,0,.327-.474,1.573,1.573,0,0,1,.557-.543,2.06,2.06,0,0,1,.968-.181,1.2,1.2,0,0,1,.986.313,1.759,1.759,0,0,1,.27.979q-.532.156-.986.264c-.3.072-.668.15-1.086.237l-.8.167a2.2,2.2,0,0,0-1.207.666,1.7,1.7,0,0,0-.44,1.182,1.81,1.81,0,0,0,.266.952,1.885,1.885,0,0,0,.758.7,2.439,2.439,0,0,0,1.14.255,3.343,3.343,0,0,0,1.285-.237,5.279,5.279,0,0,0,1.184-.724,3.579,3.579,0,0,0,.543.708.746.746,0,0,0,.512.244.817.817,0,0,0,.554-.214.619.619,0,0,0,.244-.472,3.118,3.118,0,0,0-.157-.664A3.418,3.418,0,0,1,521.69,495.759Zm-1.645-.811a2.6,2.6,0,0,1-.23,1.267,1.463,1.463,0,0,1-.621.567,1.992,1.992,0,0,1-.925.221,1.086,1.086,0,0,1-.762-.27.856.856,0,0,1-.289-.654.711.711,0,0,1,.246-.577,1.322,1.322,0,0,1,.521-.279q.271-.07.979-.223a8.627,8.627,0,0,0,1.086-.288Zm9.342.327a.567.567,0,0,0-.438.161,5.207,5.207,0,0,0-.425.575,2.146,2.146,0,0,1-.581.619,1.5,1.5,0,0,1-.838.2,1.629,1.629,0,0,1-.693-.147,1.446,1.446,0,0,1-.543-.425,1.988,1.988,0,0,1-.34-.68,3.049,3.049,0,0,1-.118-.876,2.529,2.529,0,0,1,.458-1.6,1.458,1.458,0,0,1,1.205-.584,1.388,1.388,0,0,1,.9.264,3.921,3.921,0,0,1,.706.82.672.672,0,0,0,.557.315.776.776,0,0,0,.543-.21.679.679,0,0,0,.226-.514,1.286,1.286,0,0,0-.2-.641,2.37,2.37,0,0,0-.583-.646,3.107,3.107,0,0,0-.927-.494,3.955,3.955,0,0,0-3.022.244,2.9,2.9,0,0,0-1.164,1.232,4.038,4.038,0,0,0-.4,1.839,3.451,3.451,0,0,0,.8,2.371,3.158,3.158,0,0,0,2.306.988c-.584.085-.878.228-.878.425a.381.381,0,0,0,.091.244.292.292,0,0,0,.244.116,2.213,2.213,0,0,0,.271-.029,2.094,2.094,0,0,1,.284-.027.661.661,0,0,1,.423.132.4.4,0,0,1,.17.326q0,.532-1.113.532a2.858,2.858,0,0,1-.451-.025l-.273-.025a.3.3,0,0,0-.291.291c0,.29.38.433,1.138.433a3.689,3.689,0,0,0,1.126-.15,1.532,1.532,0,0,0,.7-.427.951.951,0,0,0,.239-.641.89.89,0,0,0-.318-.711,1.7,1.7,0,0,0-.974-.328l.023-.125a3.618,3.618,0,0,0,1.56-.38,2.675,2.675,0,0,0,.986-.82,1.581,1.581,0,0,0,.331-.89.742.742,0,0,0-.208-.507A.663.663,0,0,0,529.386,495.275Zm8.625.483v-1.929a3.619,3.619,0,0,0-.262-1.509,1.629,1.629,0,0,0-.9-.833,4.708,4.708,0,0,0-1.75-.262,4.439,4.439,0,0,0-1.663.272,2.256,2.256,0,0,0-.984.693,1.429,1.429,0,0,0-.315.865.594.594,0,0,0,.206.467.723.723,0,0,0,.492.181.543.543,0,0,0,.411-.114,5.325,5.325,0,0,0,.329-.474,1.571,1.571,0,0,1,.555-.543,2.062,2.062,0,0,1,.968-.181,1.2,1.2,0,0,1,.986.313,1.746,1.746,0,0,1,.27.979q-.532.156-.986.264c-.3.072-.668.15-1.086.237s-.691.143-.8.167a2.2,2.2,0,0,0-1.207.657,1.7,1.7,0,0,0-.44,1.182,1.809,1.809,0,0,0,.266.952,1.886,1.886,0,0,0,.758.7,2.447,2.447,0,0,0,1.142.255,3.334,3.334,0,0,0,1.283-.237,5.293,5.293,0,0,0,1.185-.724,3.512,3.512,0,0,0,.543.708.745.745,0,0,0,.514.244.821.821,0,0,0,.554-.214.625.625,0,0,0,.244-.472,3.173,3.173,0,0,0-.159-.664A3.417,3.417,0,0,1,538.011,495.759Zm-1.645-.811a2.621,2.621,0,0,1-.228,1.267,1.468,1.468,0,0,1-.622.567,1.977,1.977,0,0,1-.925.221,1.075,1.075,0,0,1-.76-.27.858.858,0,0,1-.291-.653.713.713,0,0,1,.248-.577,1.314,1.314,0,0,1,.519-.279q.271-.07.981-.223a8.685,8.685,0,0,0,1.086-.288Zm-3.257-4.323c.148,0,.259-.121.333-.362.074-.281.217-.42.427-.42a1.056,1.056,0,0,1,.378.074c.127.049.32.132.581.248a6.333,6.333,0,0,0,.612.244,1.435,1.435,0,0,0,.434.071.883.883,0,0,0,.813-.436,1.555,1.555,0,0,0,.262-.782.543.543,0,0,0-.105-.353.311.311,0,0,0-.255-.136c-.156,0-.268.12-.333.362a.634.634,0,0,1-.157.326.416.416,0,0,1-.282.089.947.947,0,0,1-.313-.052c-.1-.034-.281-.112-.543-.235a6.592,6.592,0,0,0-.637-.262,1.639,1.639,0,0,0-.518-.08.9.9,0,0,0-.523.17,1.129,1.129,0,0,0-.38.458,1.383,1.383,0,0,0-.136.6.532.532,0,0,0,.109.362.315.315,0,0,0,.232.119Zm13.354,2.653a2.993,2.993,0,0,0-1.748-1.793,4.02,4.02,0,0,0-2.771,0,2.988,2.988,0,0,0-1.064.7,3.028,3.028,0,0,0-.673,1.086,4.293,4.293,0,0,0,0,2.792,3.053,3.053,0,0,0,1.741,1.8,3.665,3.665,0,0,0,1.379.246,3.76,3.76,0,0,0,1.392-.244,2.993,2.993,0,0,0,1.064-.7,3.077,3.077,0,0,0,.68-1.095,3.964,3.964,0,0,0,.235-1.392,4.025,4.025,0,0,0-.237-1.392Zm-1.911,2.991a1.472,1.472,0,0,1-1.222.579,1.493,1.493,0,0,1-.881-.264,1.657,1.657,0,0,1-.575-.757,3.438,3.438,0,0,1,0-2.327,1.628,1.628,0,0,1,.581-.756,1.509,1.509,0,0,1,.872-.257,1.473,1.473,0,0,1,1.225.575,2.527,2.527,0,0,1,.454,1.607A2.565,2.565,0,0,1,544.552,496.269Z" transform="translate(-472.2 -488.723)"  />
      </g>
    </g>
    <g id="Pública" transform="translate(84.908 98.829)">
      <g id="Pública-2" data-name="Pública">
        <path id="Caminho_239" data-name="Caminho 239" d="M477.909,563.279a2.409,2.409,0,0,0-.963-.512,6.1,6.1,0,0,0-1.607-.161h-2.353a1.264,1.264,0,0,0-.883.259,1.173,1.173,0,0,0-.279.867v6.989a1.186,1.186,0,0,0,.253.825.914.914,0,0,0,1.323,0,1.2,1.2,0,0,0,.262-.838v-2.566h1.683a3.843,3.843,0,0,0,2.534-.715,2.619,2.619,0,0,0,.854-2.1,3.1,3.1,0,0,0-.21-1.169A2.325,2.325,0,0,0,477.909,563.279Zm-1.267,2.9a1.267,1.267,0,0,1-.666.445,3.7,3.7,0,0,1-1.086.136h-1.227v-2.762H474.9a2.356,2.356,0,0,1,1.629.4,1.374,1.374,0,0,1,.362.977,1.332,1.332,0,0,1-.246.8Zm9.275-1.212a.8.8,0,0,0-.614.253,1.086,1.086,0,0,0-.235.755v2.054a5.364,5.364,0,0,1-.141,1.571,1.494,1.494,0,0,1-.543.662,1.427,1.427,0,0,1-.805.253,1.013,1.013,0,0,1-.695-.226,1.186,1.186,0,0,1-.362-.624,4.221,4.221,0,0,1-.1-.986v-2.7a1.086,1.086,0,0,0-.235-.755.809.809,0,0,0-.619-.253.782.782,0,0,0-.606.25,1.1,1.1,0,0,0-.23.758v3.346a3.1,3.1,0,0,0,.317,1.547,1.845,1.845,0,0,0,.751.7,2.351,2.351,0,0,0,1.1.253,2.952,2.952,0,0,0,.9-.127,2.345,2.345,0,0,0,.724-.387,3.761,3.761,0,0,0,.637-.642v.212a1.01,1.01,0,0,0,.226.7.781.781,0,0,0,1.138.011,1.045,1.045,0,0,0,.219-.724v-4.886a1.1,1.1,0,0,0-.228-.758.784.784,0,0,0-.6-.252Zm-3.131-.686a1.628,1.628,0,0,0,.755-.181,2.83,2.83,0,0,0,.489-.389c.235-.214.469-.44.7-.673a1.748,1.748,0,0,0,.348-.4q0-.092-.315-.092h-.836a.978.978,0,0,0-.543.123,1.728,1.728,0,0,0-.42.576l-.279.519a.906.906,0,0,0-.161.362c.009.107.089.159.266.159Zm11.508,1.1a2.716,2.716,0,0,0-1.477-.4,2.581,2.581,0,0,0-1.223.262,3.891,3.891,0,0,0-.972.758v-2.581a1.086,1.086,0,0,0-.21-.713.738.738,0,0,0-.6-.252.693.693,0,0,0-.577.264,1.22,1.22,0,0,0-.208.775v7.382a1.073,1.073,0,0,0,.214.724.724.724,0,0,0,.572.244.766.766,0,0,0,.583-.244,1.02,1.02,0,0,0,.228-.724v-.181a5.712,5.712,0,0,0,.449.483,2.717,2.717,0,0,0,.411.313,2.266,2.266,0,0,0,.585.244,2.822,2.822,0,0,0,.724.092,2.628,2.628,0,0,0,1.167-.257,2.548,2.548,0,0,0,.9-.724,3.328,3.328,0,0,0,.566-1.11,4.866,4.866,0,0,0,.194-1.408,4.264,4.264,0,0,0-.349-1.8A2.629,2.629,0,0,0,494.294,565.373Zm-.818,4.593a1.388,1.388,0,0,1-1.1.554,1.514,1.514,0,0,1-1.209-.543,2.326,2.326,0,0,1-.46-1.551,2.94,2.94,0,0,1,.215-1.184,1.749,1.749,0,0,1,.594-.762,1.482,1.482,0,0,1,.86-.262,1.349,1.349,0,0,1,.823.262,1.686,1.686,0,0,1,.543.746,3.138,3.138,0,0,1,.192,1.151A2.427,2.427,0,0,1,493.476,569.966Zm4.812-7.519a.767.767,0,0,0-.61.261,1.141,1.141,0,0,0-.226.767V570.8a1.117,1.117,0,0,0,.233.76.76.76,0,0,0,.6.266.8.8,0,0,0,.615-.257,1.086,1.086,0,0,0,.239-.769v-7.32a1.117,1.117,0,0,0-.235-.771.805.805,0,0,0-.619-.257Zm4.066,2.512a.778.778,0,0,0-.6.253,1.086,1.086,0,0,0-.233.755V570.8a1.116,1.116,0,0,0,.233.76.76.76,0,0,0,.6.266.8.8,0,0,0,.612-.261,1.085,1.085,0,0,0,.242-.765v-4.886a.983.983,0,0,0-.242-.706.808.808,0,0,0-.612-.244Zm.018-2.437a.869.869,0,0,0-.6.232.84.84,0,0,0,0,1.2.887.887,0,0,0,.6.217.865.865,0,0,0,.588-.219.776.776,0,0,0,.248-.61.751.751,0,0,0-.255-.613.885.885,0,0,0-.586-.206ZM510.923,569a.641.641,0,0,0-.44.161,1.64,1.64,0,0,0-.333.445,2.052,2.052,0,0,1-.641.724,1.55,1.55,0,0,1-.869.235,1.649,1.649,0,0,1-.693-.145,1.457,1.457,0,0,1-.543-.427,1.989,1.989,0,0,1-.34-.68,3.044,3.044,0,0,1-.118-.876,2.523,2.523,0,0,1,.458-1.6,1.589,1.589,0,0,1,2.063-.349,2.546,2.546,0,0,1,.646.7,1.759,1.759,0,0,0,.311.351.567.567,0,0,0,.351.107.77.77,0,0,0,.543-.21.676.676,0,0,0,.226-.514,1.276,1.276,0,0,0-.2-.639,2.353,2.353,0,0,0-.583-.648,3.187,3.187,0,0,0-.927-.494,3.955,3.955,0,0,0-3.022.244,2.9,2.9,0,0,0-1.164,1.234,4.032,4.032,0,0,0-.4,1.837,3.377,3.377,0,0,0,.88,2.447,3.213,3.213,0,0,0,2.443.9,4.115,4.115,0,0,0,1.323-.2,3.006,3.006,0,0,0,.975-.523,2.32,2.32,0,0,0,.574-.684,1.446,1.446,0,0,0,.19-.673.753.753,0,0,0-.2-.5.65.65,0,0,0-.505-.232Zm8.783,1.475a3.4,3.4,0,0,1-.157-.993c0-.337,0-.644.009-.921s0-.612,0-1.008a3.64,3.64,0,0,0-.262-1.509,1.629,1.629,0,0,0-.9-.832,4.733,4.733,0,0,0-1.75-.262,4.436,4.436,0,0,0-1.663.271,2.27,2.27,0,0,0-.984.693,1.434,1.434,0,0,0-.315.867.593.593,0,0,0,.206.467.724.724,0,0,0,.492.181.531.531,0,0,0,.411-.116,5.5,5.5,0,0,0,.329-.472,1.572,1.572,0,0,1,.556-.543,2.062,2.062,0,0,1,.968-.181,1.2,1.2,0,0,1,.986.311,1.751,1.751,0,0,1,.27.981q-.532.156-.986.263t-1.086.239c-.425.087-.691.141-.8.167a2.2,2.2,0,0,0-1.207.655,1.706,1.706,0,0,0-.44,1.182,1.81,1.81,0,0,0,.266.954,1.882,1.882,0,0,0,.758.7,2.423,2.423,0,0,0,1.142.257,3.305,3.305,0,0,0,1.283-.239,5.165,5.165,0,0,0,1.184-.713,3.646,3.646,0,0,0,.543.708.746.746,0,0,0,.514.244.815.815,0,0,0,.552-.214.625.625,0,0,0,.244-.474,3.155,3.155,0,0,0-.159-.652Zm-1.81-1.81a2.634,2.634,0,0,1-.228,1.267,1.468,1.468,0,0,1-.623.566,1.971,1.971,0,0,1-.925.219,1.068,1.068,0,0,1-.76-.269.851.851,0,0,1-.291-.652.724.724,0,0,1,.248-.579,1.351,1.351,0,0,1,.519-.279q.271-.07.981-.223a8.082,8.082,0,0,0,1.086-.288Z" transform="translate(-471.822 -562.446)"  />
      </g>
    </g>
    <g id="Grupo_1437" data-name="Grupo 1437" transform="translate(0.004 -0.004)">
      <g id="Preenchimento_de_Cor_2" data-name="Preenchimento de Cor 2">
        <g id="Preenchimento_de_Cor_2-2" data-name="Preenchimento de Cor 2" transform="translate(0 0)">
          <path id="Caminho_240" data-name="Caminho 240" d="M40.074,16.335l-.939.051-2.867.34a58.95,58.95,0,0,0-6.748,1.433A39.608,39.608,0,0,0,9.687,31.631a31.425,31.425,0,0,0-5.5,9.617,45.831,45.831,0,0,0-1.381,6.334,20.772,20.772,0,0,0,.051,5.248l.261,2.4A58.867,58.867,0,0,0,5.11,63.279c.708,2.016,1.355,3.942,2.172,5.838L9.94,74.953a65.149,65.149,0,0,0,3.18,6.153l2.606,5.082a50.2,50.2,0,0,1,2.534,5.029l2.215,4.613a65.33,65.33,0,0,1,3.619,10.163l1.669,7.765v.043c1.384-.894,1.511-4.007,1.511-6.359A37.083,37.083,0,0,0,25.031,95.43C21.184,84.5,16.153,75.2,12.007,64.6A68.563,68.563,0,0,1,9.6,56.753c-.261-1.033-.338-2.047-.543-3.152a20.319,20.319,0,0,1-.21-5.708,30.126,30.126,0,0,1,1.3-6.1c2.657-6.667,8.211-10.956,13.935-14.566a66.1,66.1,0,0,1,8.444-4.718l4.535-2.135,2.606-1.095-.027.078c.382-.181,1.071-2.423,1.278-2.972C40.787,16.277,40.314,16.326,40.074,16.335Z" transform="translate(-2.664 -16.316)"  />
        </g>
      </g>
      <g id="Preenchimento_de_Cor_1" data-name="Preenchimento de Cor 1" transform="translate(26.27 0.011)">
        <g id="Preenchimento_de_Cor_1-2" data-name="Preenchimento de Cor 1">
          <path id="Caminho_241" data-name="Caminho 241" d="M198.918,48.885c-.194-1.254-.052-2.436-.288-3.569a28.761,28.761,0,0,0-1.824-5.863,35.19,35.19,0,0,0-4.924-7.688c-.661-.832-1.5-1.526-2.163-2.353a33.537,33.537,0,0,0-6.595-5.682,39.35,39.35,0,0,0-23.345-7.347,19.918,19.918,0,0,1-1.511,3.518l-1.594,4.276q-.988,3.285-1.98,6.567l-.724,3.31c-.436,1.759-.49,3.538-.834,5.445q-.1,1.33-.208,2.658-.04,1.135-.078,2.268c0,3.232.452,6.153,1.667,8.234.724,1.247,1.62,2.946,3.024,3.493a4.107,4.107,0,0,0,2.5-.235,8.761,8.761,0,0,1,3.571-.261,19.64,19.64,0,0,1,2.448.5,10.1,10.1,0,0,1,6.254,5.55,8.578,8.578,0,0,1,.724,5.082c-1.118,5.206-5.972,7.963-10.945,9.329-2.04.565-5.7,1.511-6.855-.362-.852-1.39,1.339-2.557,2.19-2.9,3.6-1.417,9.072-1.017,9.85-5.237a5.308,5.308,0,0,0-.338-2.581,3.876,3.876,0,0,0-1.669-2.293c-3.051-1.857-9.816-.181-12.143,1.2a10.927,10.927,0,0,0-4.9,7.087c-.206.822-.15,1.643-.313,2.581a12.023,12.023,0,0,0,.13,3.619,14.817,14.817,0,0,0,.782,2.9c1.726,4.061,4.991,6.49,8.652,8.625a53.628,53.628,0,0,0,6.593,2.9c.688.282,2.192.65,2.5,1.25,0,1.059-2.933,1.316-3.934,1.564-2.924.724-5.957,1.16-6.462,4.3-.241,1.489,1.307,3.938,1.877,4.8,2.649,3.981,6.587,6.318,11.206,8.339,1.462.641,3.076,1.194,4.638,1.745.46.163,1.339.456,1.824.1.568-.413.53-1.317.7-2.137q.48-2.449.963-4.9A70.33,70.33,0,0,1,183.1,91.934l6.386-12.588a58.424,58.424,0,0,0,2.841-5.733c.793-1.793,1.692-3.6,2.476-5.447a63.255,63.255,0,0,0,3.726-12.487c.226-1.138.145-2.273.338-3.493a12.18,12.18,0,0,0,.052-3.3Z" transform="translate(-147.83 -16.379)"  />
        </g>
      </g>
      <g id="Elipse_2" data-name="Elipse 2" transform="translate(27.141 107.801)">
        <g id="Elipse_2-2" data-name="Elipse 2">
          <ellipse id="Elipse_23" data-name="Elipse 23" cx="11.361" cy="2.932" rx="11.361" ry="2.932"  />
          <ellipse id="Elipse_24" data-name="Elipse 24" cx="11.361" cy="2.932" rx="11.361" ry="2.932" fill="none" stroke="#000" stroke-width="0"/>
        </g>
      </g>
      <g id="Elipse_3" data-name="Elipse 3" transform="translate(24.64 99.516)">
        <g id="Elipse_3-2" data-name="Elipse 3">
          <ellipse id="Elipse_25" data-name="Elipse 25" cx="13.837" cy="3.022" rx="13.837" ry="3.022"  />
          <ellipse id="Elipse_26" data-name="Elipse 26" cx="13.837" cy="3.022" rx="13.837" ry="3.022" fill="none" stroke="#000" stroke-width="0"/>
        </g>
      </g>
      <g id="Elipse_1" data-name="Elipse 1" transform="translate(29.24 116.183)">
        <g id="Elipse_1-2" data-name="Elipse 1">
          <ellipse id="Elipse_27" data-name="Elipse 27" cx="9.249" cy="3.093" rx="9.249" ry="3.093"  />
          <ellipse id="Elipse_28" data-name="Elipse 28" cx="9.249" cy="3.093" rx="9.249" ry="3.093" fill="none" stroke="#000" stroke-width="0"/>
        </g>
      </g>
    </g>
  </g>
</svg>
