<svg xmlns="http://www.w3.org/2000/svg" width="48" height="48" viewBox="0 0 48 48">
  <g id="Grupo_2100" data-name="Grupo 2100" transform="translate(1535.557 16437.844)">
    <g id="Grupo_2055" data-name="Grupo 2055" transform="translate(115.165 708.619)">
      <g id="Grupo_2023" data-name="Grupo 2023" transform="translate(6020.007 402.587)">
        <g id="Grupo_1969" data-name="Grupo 1969" transform="translate(-7670.729 -17549.051)">
          <g id="Grupo_1371" data-name="Grupo 1371" transform="translate(1.618 0.146)">
            <path id="Caminho_221" data-name="Caminho 221" d="M4.263,0H40.5a4.538,4.538,0,0,1,4.263,4.771V42.937A4.538,4.538,0,0,1,40.5,47.707H4.263A4.538,4.538,0,0,1,0,42.937V4.771A4.538,4.538,0,0,1,4.263,0Z" transform="translate(0 0)" fill="#5e35b1"/>
          </g>
          <g id="water_drop_black_24dp" transform="translate(0 0)">
            <rect id="Retângulo_45" data-name="Retângulo 45" width="48" height="48" transform="translate(0 0)" fill="none"/>
          </g>
        </g>
      </g>
      <g id="lightbulb_black_24dp" transform="translate(-1642.182 -17137.926)">
        <path id="Caminho_25" data-name="Caminho 25" d="M0,0H30.919V30.919H0Z" fill="none"/>
      </g>
    </g>
    <path id="Caminho_635" data-name="Caminho 635" d="M6.415,25.636a2.838,2.838,0,0,0,2.829,2.829H20.562a2.838,2.838,0,0,0,2.829-2.829V8.659H6.415ZM24.806,4.415H19.855L18.44,3H11.366L9.952,4.415H5V7.244H24.806Z" transform="translate(-1526.46 -16429.578)" fill="#fff"/>
  </g>
</svg>
