<svg xmlns="http://www.w3.org/2000/svg" width="48" height="48" viewBox="0 0 48 48">
  <g id="Grupo_2136" data-name="Grupo 2136" transform="translate(-20.363 16431.543)">
    <g id="Grupo_2079" data-name="Grupo 2079" transform="translate(1671.085 714.92)">
      <g id="Grupo_2023" data-name="Grupo 2023" transform="translate(6020.007 402.587)">
        <g id="Grupo_1969" data-name="Grupo 1969" transform="translate(-7670.729 -17549.051)">
          <g id="Grupo_1371" data-name="Grupo 1371" transform="translate(1.618 0.146)">
            <path id="Caminho_221" data-name="Caminho 221" d="M4.263,0H40.5a4.538,4.538,0,0,1,4.263,4.771V42.937A4.538,4.538,0,0,1,40.5,47.707H4.263A4.538,4.538,0,0,1,0,42.937V4.771A4.538,4.538,0,0,1,4.263,0Z" transform="translate(0 0)" fill="#009688"/>
          </g>
          <g id="water_drop_black_24dp" transform="translate(0 0)">
            <rect id="Retângulo_45" data-name="Retângulo 45" width="48" height="48" transform="translate(0 0)" fill="none"/>
          </g>
        </g>
      </g>
      <g id="lightbulb_black_24dp" transform="translate(-1642.182 -17137.926)">
        <path id="Caminho_25" data-name="Caminho 25" d="M0,0H30.919V30.919H0Z" fill="none"/>
      </g>
    </g>
    <path id="Caminho_647" data-name="Caminho 647" d="M14.209,1,3,5.982v7.472C3,20.366,7.782,26.83,14.209,28.4c6.426-1.569,11.209-8.033,11.209-14.945V5.982Zm3.114,14.434,1.121,4.832-4.234-2.553L9.974,20.267l1.121-4.82L7.359,12.221l4.932-.423,1.918-4.546,1.918,4.533,4.932.423Z" transform="translate(30.283 -16422.244)" fill="#fff"/>
  </g>
</svg>
