<svg xmlns="http://www.w3.org/2000/svg" width="48" height="48" viewBox="0 0 48 48">
  <g id="Grupo_2122" data-name="Grupo 2122" transform="translate(-19.557 17140.543)">
    <g id="Grupo_2071" data-name="Grupo 2071" transform="translate(1670.279 5.92)">
      <g id="Grupo_2023" data-name="Grupo 2023" transform="translate(6020.007 402.587)">
        <g id="Grupo_1969" data-name="Grupo 1969" transform="translate(-7670.729 -17549.051)">
          <g id="Grupo_1371" data-name="Grupo 1371" transform="translate(1.618 0.146)">
            <path id="Caminho_221" data-name="Caminho 221" d="M4.263,0H40.5a4.538,4.538,0,0,1,4.263,4.771V42.937A4.538,4.538,0,0,1,40.5,47.707H4.263A4.538,4.538,0,0,1,0,42.937V4.771A4.538,4.538,0,0,1,4.263,0Z" transform="translate(0 0)" fill="#1a237e"/>
          </g>
          <g id="water_drop_black_24dp" transform="translate(0 0)">
            <rect id="Retângulo_45" data-name="Retângulo 45" width="48" height="48" transform="translate(0 0)" fill="none"/>
          </g>
        </g>
      </g>
      <g id="lightbulb_black_24dp" transform="translate(-1642.182 -17137.926)">
        <path id="Caminho_25" data-name="Caminho 25" d="M0,0H30.919V30.919H0Z" fill="none"/>
      </g>
    </g>
    <path id="Caminho_643" data-name="Caminho 643" d="M3,10.29v7.342H7.895l6.118,6.118V4.172L7.895,10.29Zm16.519,3.671A5.507,5.507,0,0,0,16.46,9.03v9.85A5.475,5.475,0,0,0,19.519,13.961ZM16.46,3.23V5.751a8.568,8.568,0,0,1,0,16.421v2.521a11.005,11.005,0,0,0,0-21.463Z" transform="translate(29.544 -17130.508)" fill="#fff"/>
  </g>
</svg>
