<svg xmlns="http://www.w3.org/2000/svg" width="48" height="48" viewBox="0 0 48 48">
  <g id="Grupo_2105" data-name="Grupo 2105" transform="translate(1535.557 16258.845)">
    <g id="Grupo_2057" data-name="Grupo 2057" transform="translate(115.165 887.619)">
      <g id="Grupo_2023" data-name="Grupo 2023" transform="translate(6020.007 402.587)">
        <g id="Grupo_1969" data-name="Grupo 1969" transform="translate(-7670.729 -17549.051)">
          <g id="Grupo_1371" data-name="Grupo 1371" transform="translate(1.618 0.146)">
            <path id="Caminho_221" data-name="Caminho 221" d="M4.263,0H40.5a4.538,4.538,0,0,1,4.263,4.771V42.937A4.538,4.538,0,0,1,40.5,47.707H4.263A4.538,4.538,0,0,1,0,42.937V4.771A4.538,4.538,0,0,1,4.263,0Z" transform="translate(0 0)" fill="#4caf50"/>
          </g>
          <g id="water_drop_black_24dp" transform="translate(0 0)">
            <rect id="Retângulo_45" data-name="Retângulo 45" width="48" height="48" transform="translate(0 0)" fill="none"/>
          </g>
        </g>
      </g>
      <g id="lightbulb_black_24dp" transform="translate(-1642.182 -17137.926)">
        <path id="Caminho_25" data-name="Caminho 25" d="M0,0H30.919V30.919H0Z" fill="none"/>
      </g>
    </g>
    <path id="Caminho_637" data-name="Caminho 637" d="M7.491,9.009,9.437,5.783l1.4-2.327a1.364,1.364,0,0,1,2.341,0L15.194,6.8l-1.674,2.8-1.361,2.2ZM29.2,16.929l-2.177-3.62-4.709,2.722,3.008,5.022h1.538a2.722,2.722,0,0,0,2.436-1.511,2.686,2.686,0,0,0,.286-1.211A2.853,2.853,0,0,0,29.2,16.929ZM21.413,27.857h2.041a2.722,2.722,0,0,0,2.436-1.511l1.973-3.933H21.413V19.691L15.97,25.135l5.444,5.444Zm-8.165-5.444H7.4L6.253,24.332a2.348,2.348,0,0,0-.082,2.245h0A2.306,2.306,0,0,0,8.24,27.857h5.008Zm-5.28-3.606,2.354,1.415L8.458,12.751,1,14.615,3.313,16l-.558.939a2.7,2.7,0,0,0-.1,2.613l2.218,4.436ZM22.8,6.273,21.032,3.32A2.758,2.758,0,0,0,18.691,2h-4.8l4.246,7.077-2.341,1.4,7.471,1.864,1.864-7.471Z" transform="translate(-1526.846 -16251.135)" fill="#fff"/>
  </g>
</svg>
