<svg xmlns="http://www.w3.org/2000/svg" width="48" height="48" viewBox="0 0 48 48">
  <g id="Grupo_2096" data-name="Grupo 2096" transform="translate(1535.492 16795.844)">
    <g id="Grupo_2051" data-name="Grupo 2051" transform="translate(115.23 350.619)">
      <g id="Grupo_2023" data-name="Grupo 2023" transform="translate(6020.007 402.587)">
        <g id="Grupo_1969" data-name="Grupo 1969" transform="translate(-7670.729 -17549.051)">
          <g id="Grupo_1371" data-name="Grupo 1371" transform="translate(1.618 0.146)">
            <path id="Caminho_221" data-name="Caminho 221" d="M4.263,0H40.5a4.538,4.538,0,0,1,4.263,4.771V42.937A4.538,4.538,0,0,1,40.5,47.707H4.263A4.538,4.538,0,0,1,0,42.937V4.771A4.538,4.538,0,0,1,4.263,0Z" transform="translate(0 0)" fill="#424242"/>
          </g>
          <g id="water_drop_black_24dp" transform="translate(0 0)">
            <rect id="Retângulo_45" data-name="Retângulo 45" width="48" height="48" transform="translate(0 0)" fill="none"/>
          </g>
        </g>
      </g>
      <g id="lightbulb_black_24dp" transform="translate(-1642.182 -17137.926)">
        <path id="Caminho_25" data-name="Caminho 25" d="M0,0H30.919V30.919H0Z" fill="none"/>
      </g>
    </g>
    <g id="Grupo_2093" data-name="Grupo 2093" transform="translate(4.389 -16.036)">
      <rect id="Retângulo_483" data-name="Retângulo 483" width="20" height="3" transform="translate(-1525.835 -16748.619)" fill="#fff"/>
      <rect id="Retângulo_484" data-name="Retângulo 484" width="4" height="7" transform="translate(-1510.835 -16756.619)" fill="#fff"/>
      <path id="Caminho_631" data-name="Caminho 631" d="M11.987,1,2,5.993v2H21.974v-2Z" transform="translate(-1527.929 -16767)" fill="#fff"/>
      <rect id="Retângulo_485" data-name="Retângulo 485" width="4" height="7" transform="translate(-1524.835 -16756.619)" fill="#fff"/>
      <rect id="Retângulo_486" data-name="Retângulo 486" width="3" height="7" transform="translate(-1517.835 -16756.619)" fill="#fff"/>
    </g>
  </g>
</svg>
