<svg xmlns="http://www.w3.org/2000/svg" width="48" height="48" viewBox="0 0 48 48">
  <g id="Grupo_2110" data-name="Grupo 2110" transform="translate(764.363 17146.844)">
    <g id="Grupo_2059" data-name="Grupo 2059" transform="translate(886.359 -0.381)">
      <g id="Grupo_2023" data-name="Grupo 2023" transform="translate(6020.007 402.587)">
        <g id="Grupo_1969" data-name="Grupo 1969" transform="translate(-7670.729 -17549.051)">
          <g id="Grupo_1371" data-name="Grupo 1371" transform="translate(1.618 0.146)">
            <path id="Caminho_221" data-name="Caminho 221" d="M4.263,0H40.5a4.538,4.538,0,0,1,4.263,4.771V42.937A4.538,4.538,0,0,1,40.5,47.707H4.263A4.538,4.538,0,0,1,0,42.937V4.771A4.538,4.538,0,0,1,4.263,0Z" transform="translate(0 0)" fill="#424242"/>
          </g>
          <g id="water_drop_black_24dp" transform="translate(0 0)">
            <rect id="Retângulo_45" data-name="Retângulo 45" width="48" height="48" transform="translate(0 0)" fill="none"/>
          </g>
        </g>
      </g>
      <g id="lightbulb_black_24dp" transform="translate(-1642.182 -17137.926)">
        <path id="Caminho_25" data-name="Caminho 25" d="M0,0H30.919V30.919H0Z" fill="none"/>
      </g>
    </g>
    <g id="Grupo_2107" data-name="Grupo 2107" transform="translate(1036.878 34.365)">
      <rect id="Retângulo_49" data-name="Retângulo 49" width="30.237" height="30.237" transform="translate(-1791.36 -17172.33)" fill="none"/>
      <rect id="Retângulo_50" data-name="Retângulo 50" width="2.387" height="11.936" transform="translate(-1769.727 -17167.557)" fill="#fff"/>
      <rect id="Retângulo_51" data-name="Retângulo 51" width="3.183" height="20.689" transform="translate(-1788.028 -17167.557)" fill="#fff"/>
      <rect id="Retângulo_52" data-name="Retângulo 52" width="3.183" height="5.57" transform="translate(-1779.276 -17167.557)" fill="#fff"/>
      <rect id="Retângulo_53" data-name="Retângulo 53" width="3.183" height="4.774" transform="translate(-1779.276 -17159.6)" fill="#fff"/>
      <rect id="Retângulo_54" data-name="Retângulo 54" width="3.183" height="5.57" transform="translate(-1779.276 -17152.438)" fill="#fff"/>
    </g>
  </g>
</svg>
