<svg xmlns="http://www.w3.org/2000/svg" width="48" height="48" viewBox="0 0 48 48">
  <g id="Grupo_2118" data-name="Grupo 2118" transform="translate(763.428 16616.844)">
    <g id="Grupo_2065" data-name="Grupo 2065" transform="translate(887.294 529.619)">
      <g id="Grupo_2023" data-name="Grupo 2023" transform="translate(6020.007 402.587)">
        <g id="Grupo_1969" data-name="Grupo 1969" transform="translate(-7670.729 -17549.051)">
          <g id="Grupo_1371" data-name="Grupo 1371" transform="translate(1.618 0.146)">
            <path id="Caminho_221" data-name="Caminho 221" d="M4.263,0H40.5a4.538,4.538,0,0,1,4.263,4.771V42.937A4.538,4.538,0,0,1,40.5,47.707H4.263A4.538,4.538,0,0,1,0,42.937V4.771A4.538,4.538,0,0,1,4.263,0Z" transform="translate(0 0)" fill="#2196f3"/>
          </g>
          <g id="water_drop_black_24dp" transform="translate(0 0)">
            <rect id="Retângulo_45" data-name="Retângulo 45" width="48" height="48" transform="translate(0 0)" fill="none"/>
          </g>
        </g>
      </g>
      <g id="lightbulb_black_24dp" transform="translate(-1642.182 -17137.926)">
        <path id="Caminho_25" data-name="Caminho 25" d="M0,0H30.919V30.919H0Z" fill="none"/>
      </g>
    </g>
    <g id="Grupo_2117" data-name="Grupo 2117">
      <path id="Caminho_639" data-name="Caminho 639" d="M26.053,25.9,3.159,3.009,1.39,4.765,6.622,10a9.628,9.628,0,0,0-1.993,5.854A9.981,9.981,0,0,0,20.423,23.8l3.861,3.861ZM14.606,23.176a7.4,7.4,0,0,1-7.474-7.312A7.176,7.176,0,0,1,8.4,11.778l6.2,6.2ZM10.1,6.434,14.606,2l7.038,6.926h0a9.665,9.665,0,0,1,2.005,11.049l-9.043-9.043V5.5l-2.74,2.691Z" transform="translate(-754.22 -16607.486)" fill="#fff"/>
    </g>
  </g>
</svg>
