<svg xmlns="http://www.w3.org/2000/svg" width="48" height="48" viewBox="0 0 48 48">
  <g id="Grupo_2138" data-name="Grupo 2138" transform="translate(763.492 16795.844)">
    <g id="Grupo_2063" data-name="Grupo 2063" transform="translate(887.23 350.619)">
      <g id="Grupo_2023" data-name="Grupo 2023" transform="translate(6020.007 402.587)">
        <g id="Grupo_1969" data-name="Grupo 1969" transform="translate(-7670.729 -17549.051)">
          <g id="Grupo_1371" data-name="Grupo 1371" transform="translate(1.618 0.146)">
            <path id="Caminho_221" data-name="Caminho 221" d="M4.263,0H40.5a4.538,4.538,0,0,1,4.263,4.771V42.937A4.538,4.538,0,0,1,40.5,47.707H4.263A4.538,4.538,0,0,1,0,42.937V4.771A4.538,4.538,0,0,1,4.263,0Z" transform="translate(0 0)" fill="#4dd0e1"/>
          </g>
          <g id="water_drop_black_24dp" transform="translate(0 0)">
            <rect id="Ret창ngulo_45" data-name="Ret창ngulo 45" width="48" height="48" transform="translate(0 0)" fill="none"/>
          </g>
        </g>
      </g>
      <g id="lightbulb_black_24dp" transform="translate(-1642.182 -17137.926)">
        <path id="Caminho_25" data-name="Caminho 25" d="M0,0H30.919V30.919H0Z" fill="none"/>
      </g>
    </g>
    <g id="emergency_black_24dp" transform="translate(-755.791 -16787.791)">
      <rect id="Ret창ngulo_55" data-name="Ret창ngulo 55" width="31" height="31" transform="translate(0.791 0.791)" fill="none"/>
      <path id="Caminho_33" data-name="Caminho 33" d="M26.351,11.2,23.719,6.646l-6.305,3.646V3H12.148v7.293L5.843,6.646,3.21,11.2l6.305,3.646L3.21,18.493l2.633,4.555L12.148,19.4v7.293h5.265V19.4l6.305,3.646,2.633-4.555-6.305-3.646Z" transform="translate(1.157 1.09)" fill="#fff"/>
    </g>
  </g>
</svg>
