<svg id="Grupo_3096" data-name="Grupo 3096" xmlns="http://www.w3.org/2000/svg" width="49.178" height="49.178" viewBox="0 0 49.178 49.178">
  <g id="Grupo_2073" data-name="Grupo 2073" transform="translate(0 0)">
    <g id="Grupo_2023" data-name="Grupo 2023" transform="translate(0 0)">
      <g id="Grupo_1969" data-name="Grupo 1969" transform="translate(0 0)">
        <g id="Grupo_1371" data-name="Grupo 1371" transform="translate(1.658 0.15)">
          <path id="Caminho_221" data-name="Caminho 221" d="M4.368,0H41.494a4.65,4.65,0,0,1,4.368,4.888v39.1a4.65,4.65,0,0,1-4.368,4.888H4.368A4.65,4.65,0,0,1,0,43.99V4.888A4.65,4.65,0,0,1,4.368,0Z" transform="translate(0 0)" fill="#f57c00"/>
        </g>
        <g id="water_drop_black_24dp">
          <rect id="Retângulo_45" data-name="Retângulo 45" width="49.178" height="49.178" fill="none"/>
        </g>
      </g>
    </g>
    <g id="lightbulb_black_24dp" transform="translate(8.75 8.748)">
      <path id="Caminho_25" data-name="Caminho 25" d="M0,0H31.678V31.678H0Z" fill="none"/>
    </g>
  </g>
  <path id="Caminho_645" data-name="Caminho 645" d="M22.986,13.181V15.8h5.246V13.181Zm-2.623,8.67c1.259.931,2.9,2.164,4.2,3.135.525-.7,1.049-1.4,1.574-2.1-1.3-.971-2.938-2.2-4.2-3.148C21.412,20.447,20.887,21.156,20.362,21.851ZM26.133,6.1c-.525-.7-1.049-1.4-1.574-2.1-1.3.971-2.938,2.2-4.2,3.148.525.7,1.049,1.4,1.574,2.1C23.2,8.3,24.835,7.082,26.133,6.1ZM4.623,10.558A2.631,2.631,0,0,0,2,13.181V15.8a2.631,2.631,0,0,0,2.623,2.623H5.935v5.246H8.558V18.428H9.87l6.558,3.935V6.623L9.87,10.558Zm15.083,3.935A5.876,5.876,0,0,0,17.739,10.1v8.775A5.826,5.826,0,0,0,19.707,14.493Z" transform="translate(8.646 10.096)" fill="#fff"/>
</svg>
