<svg xmlns="http://www.w3.org/2000/svg" width="48" height="48" viewBox="0 0 48 48">
  <g id="Grupo_2115" data-name="Grupo 2115" transform="translate(763.557 16961.883)">
    <g id="Grupo_2061" data-name="Grupo 2061" transform="translate(887.165 184.58)">
      <g id="Grupo_2023" data-name="Grupo 2023" transform="translate(6020.007 402.587)">
        <g id="Grupo_1969" data-name="Grupo 1969" transform="translate(-7670.729 -17549.051)">
          <g id="Grupo_1371" data-name="Grupo 1371" transform="translate(1.618 0.146)">
            <path id="Caminho_221" data-name="Caminho 221" d="M4.263,0H40.5a4.538,4.538,0,0,1,4.263,4.771V42.937A4.538,4.538,0,0,1,40.5,47.707H4.263A4.538,4.538,0,0,1,0,42.937V4.771A4.538,4.538,0,0,1,4.263,0Z" transform="translate(0 0)" fill="#ff9800"/>
          </g>
          <g id="water_drop_black_24dp" transform="translate(0 0)">
            <rect id="Ret창ngulo_45" data-name="Ret창ngulo 45" width="48" height="48" transform="translate(0 0)" fill="none"/>
          </g>
        </g>
      </g>
      <g id="lightbulb_black_24dp" transform="translate(-1642.182 -17137.926)">
        <path id="Caminho_25" data-name="Caminho 25" d="M0,0H30.919V30.919H0Z" fill="none"/>
      </g>
    </g>
    <g id="Grupo_2112" data-name="Grupo 2112" transform="translate(984.504 219.82)">
      <rect id="Ret창ngulo_48" data-name="Ret창ngulo 48" width="3.731" height="10.545" transform="translate(-1721.844 -17153.625) rotate(-45)" fill="#fff"/>
      <path id="Caminho_31" data-name="Caminho 31" d="M21.25,11.8A4.357,4.357,0,0,0,25.6,7.447a4.3,4.3,0,0,0-.51-1.99L21.735,8.815,19.882,6.962,23.24,3.6a4.3,4.3,0,0,0-1.99-.51A4.357,4.357,0,0,0,16.9,7.447a4.241,4.241,0,0,0,.261,1.442l-2.3,2.3L12.645,8.976l.883-.883L11.775,6.34,14.411,3.7a3.73,3.73,0,0,0-5.273,0l-4.4,4.4L6.49,9.859H2.983l-.883.883,4.4,4.4.883-.883V10.742L9.138,12.5l.883-.883,2.213,2.213L3.02,23.041l2.636,2.636L19.808,11.538A4.241,4.241,0,0,0,21.25,11.8Z" transform="translate(-1738.472 -17171.855)" fill="#fff"/>
    </g>
  </g>
</svg>
