<svg id="Grupo_3095" data-name="Grupo 3095" xmlns="http://www.w3.org/2000/svg" width="48" height="48" viewBox="0 0 48 48">
  <g id="Grupo_2041" data-name="Grupo 2041" transform="translate(0 0)">
    <g id="Grupo_2026" data-name="Grupo 2026" transform="translate(0 0)">
      <g id="Grupo_2023" data-name="Grupo 2023" transform="translate(0 0)">
        <g id="Grupo_1969" data-name="Grupo 1969">
          <g id="Grupo_1371" data-name="Grupo 1371" transform="translate(1.618 0.146)">
            <path id="Caminho_221" data-name="Caminho 221" d="M4.263,0H40.5a4.538,4.538,0,0,1,4.263,4.771V42.936A4.538,4.538,0,0,1,40.5,47.707H4.263A4.538,4.538,0,0,1,0,42.936V4.771A4.538,4.538,0,0,1,4.263,0Z" transform="translate(0 0)" fill="#757575"/>
          </g>
          <g id="water_drop_black_24dp">
            <rect id="Retângulo_45" data-name="Retângulo 45" width="48" height="48" transform="translate(0 0)" fill="none"/>
          </g>
        </g>
      </g>
    </g>
    <g id="delete_black_24dp" transform="translate(7.023 7.022)">
      <path id="Caminho_28" data-name="Caminho 28" d="M0,0H33.954V33.954H0Z" fill="none"/>
    </g>
  </g>
  <path id="Caminho_630" data-name="Caminho 630" d="M14.209,1,3,5.982v7.472C3,20.366,7.782,26.83,14.209,28.4c6.426-1.569,11.209-8.033,11.209-14.945V5.982Zm3.114,14.434,1.121,4.832-4.234-2.553L9.974,20.266l1.121-4.82L7.359,12.221l4.932-.423,1.918-4.546,1.918,4.533,4.932.423Z" transform="translate(9.791 9.3)" fill="#fff"/>
</svg>
