<svg xmlns="http://www.w3.org/2000/svg" width="44.763" height="47.707" viewBox="0 0 44.763 47.707">
  <g id="Grupo_2098" data-name="Grupo 2098" transform="translate(1533.938 17140.396)">
    <path id="Caminho_221" data-name="Caminho 221" d="M4.263,0H40.5a4.538,4.538,0,0,1,4.263,4.771V42.937A4.538,4.538,0,0,1,40.5,47.707H4.263A4.538,4.538,0,0,1,0,42.937V4.771A4.538,4.538,0,0,1,4.263,0Z" transform="translate(-1533.938 -17140.396)" fill="#ffe600"/>
    <path id="Caminho_26" data-name="Caminho 26" d="M10.153,26.478a1.291,1.291,0,0,0,1.288,1.288h5.153a1.291,1.291,0,0,0,1.288-1.288V25.19h-7.73ZM14.018,2A8.963,8.963,0,0,0,5,11.018a8.8,8.8,0,0,0,3.865,7.343v2.963a1.291,1.291,0,0,0,1.288,1.288h7.73a1.291,1.291,0,0,0,1.288-1.288V18.361a9.152,9.152,0,0,0,3.865-7.343A8.963,8.963,0,0,0,14.018,2Z" transform="translate(-1525.575 -17131.43)" fill="#fff"/>
  </g>
</svg>
