<svg xmlns="http://www.w3.org/2000/svg" width="48" height="48" viewBox="0 0 48 48">
  <g id="Grupo_2140" data-name="Grupo 2140" transform="translate(763.557 16258.845)">
    <g id="Grupo_2069" data-name="Grupo 2069" transform="translate(887.165 887.619)">
      <g id="Grupo_2023" data-name="Grupo 2023" transform="translate(6020.007 402.587)">
        <g id="Grupo_1969" data-name="Grupo 1969" transform="translate(-7670.729 -17549.051)">
          <g id="Grupo_1371" data-name="Grupo 1371" transform="translate(1.618 0.146)">
            <path id="Caminho_221" data-name="Caminho 221" d="M4.263,0H40.5a4.538,4.538,0,0,1,4.263,4.771V42.937A4.538,4.538,0,0,1,40.5,47.707H4.263A4.538,4.538,0,0,1,0,42.937V4.771A4.538,4.538,0,0,1,4.263,0Z" transform="translate(0 0)" fill="#4caf50"/>
          </g>
          <g id="water_drop_black_24dp" transform="translate(0 0)">
            <rect id="Ret창ngulo_45" data-name="Ret창ngulo 45" width="48" height="48" transform="translate(0 0)" fill="none"/>
          </g>
        </g>
      </g>
      <g id="lightbulb_black_24dp" transform="translate(-1642.182 -17137.926)">
        <path id="Caminho_25" data-name="Caminho 25" d="M0,0H30.919V30.919H0Z" fill="none"/>
      </g>
    </g>
    <g id="park_black_24dp" transform="translate(-753.107 -16248.396)">
      <g id="Grupo_1247" data-name="Grupo 1247" transform="translate(-0.57 -0.57)">
        <rect id="Ret창ngulo_57" data-name="Ret창ngulo 57" width="28.241" height="28.241" transform="translate(0 0)" fill="none"/>
      </g>
      <g id="Grupo_1248" data-name="Grupo 1248" transform="translate(3.451 2.176)">
        <path id="Caminho_37" data-name="Caminho 37" d="M19.208,13.588h2.318L13.414,2,5.36,13.588h2.26L3.1,20.541h8.019v4.635h4.589V20.541h8.135Z" transform="translate(-3.1 -2)" fill="#fff"/>
      </g>
    </g>
  </g>
</svg>
