<svg width="75" height="75" viewBox="0 0 75 75" xmlns="http://www.w3.org/2000/svg" fill="#e3e3e3">
<path d="M23.4375 55.5L37.5 41.4375L51.5625 55.5L55.5 51.5625L41.4375 37.5L55.5 23.4375L51.5625 19.5L37.5 33.5625L23.4375 19.5L19.5 23.4375L33.5625 37.5L19.5 51.5625L23.4375 55.5ZM37.5 75C32.375 75 27.5312 74.0156 22.9688 72.0469C18.4062 70.0781 14.4219 67.3906 11.0156 63.9844C7.60938 60.5781 4.92188 56.5938 2.95312 52.0312C0.984375 47.4688 0 42.625 0 37.5C0 32.3125 0.984375 27.4375 2.95312 22.875C4.92188 18.3125 7.60938 14.3438 11.0156 10.9688C14.4219 7.59375 18.4062 4.92188 22.9688 2.95312C27.5312 0.984375 32.375 0 37.5 0C42.6875 0 47.5625 0.984375 52.125 2.95312C56.6875 4.92188 60.6562 7.59375 64.0312 10.9688C67.4062 14.3438 70.0781 18.3125 72.0469 22.875C74.0156 27.4375 75 32.3125 75 37.5C75 42.625 74.0156 47.4688 72.0469 52.0312C70.0781 56.5938 67.4062 60.5781 64.0312 63.9844C60.6562 67.3906 56.6875 70.0781 52.125 72.0469C47.5625 74.0156 42.6875 75 37.5 75ZM37.5 69.375C46.375 69.375 53.9062 66.2656 60.0938 60.0469C66.2812 53.8281 69.375 46.3125 69.375 37.5C69.375 28.625 66.2812 21.0938 60.0938 14.9062C53.9062 8.71875 46.375 5.625 37.5 5.625C28.6875 5.625 21.1719 8.71875 14.9531 14.9062C8.73438 21.0938 5.625 28.625 5.625 37.5C5.625 46.3125 8.73438 53.8281 14.9531 60.0469C21.1719 66.2656 28.6875 69.375 37.5 69.375Z"/>
</svg>
