<svg xmlns="http://www.w3.org/2000/svg" width="19.801" height="18.858" viewBox="0 0 19.801 18.858"  fill="#404040">
  <path id="Caminho_693" data-name="Caminho 693" d="M89.429-861.142a9.181,9.181,0,0,1-3.677-.743,9.521,9.521,0,0,1-2.994-2.015,9.522,9.522,0,0,1-2.015-2.994A9.182,9.182,0,0,1,80-870.571a9.182,9.182,0,0,1,.743-3.677,9.521,9.521,0,0,1,2.015-2.994,9.521,9.521,0,0,1,2.994-2.015A9.182,9.182,0,0,1,89.429-880a9.092,9.092,0,0,1,6.376,2.463,9.139,9.139,0,0,1,3.005,6.093,4.866,4.866,0,0,0-.707-.33,4.379,4.379,0,0,0-.778-.212,7.985,7.985,0,0,0-1.65-3.677,7.934,7.934,0,0,0-3.253-2.428v.424a2.052,2.052,0,0,1-.566,1.438,1.819,1.819,0,0,1-1.391.613H88.415v2.051a.815.815,0,0,1-.318.66,1.108,1.108,0,0,1-.719.259H85.422v2.074H91.5a.838.838,0,0,1,.613.259,1.041,1.041,0,0,1,.306.613,5.01,5.01,0,0,0-.471,1.143,4.566,4.566,0,0,0-.165,1.214,4.734,4.734,0,0,0,.8,2.64q.8,1.226,1.556,2.31a9.309,9.309,0,0,1-2.239.931A9.458,9.458,0,0,1,89.429-861.142Zm-1.014-1.438v-1.933a1.819,1.819,0,0,1-1.391-.613,2.052,2.052,0,0,1-.566-1.438V-867.6l-4.832-4.832a6.623,6.623,0,0,0-.165.931,9.122,9.122,0,0,0-.047.931,7.891,7.891,0,0,0,1.992,5.351A7.6,7.6,0,0,0,88.415-862.58Zm8.085,1.438a.238.238,0,0,1-.153-.047.249.249,0,0,1-.083-.118,7.252,7.252,0,0,0-.813-1.662q-.507-.766-1.1-1.5a6.169,6.169,0,0,1-.825-1.344,3.681,3.681,0,0,1-.33-1.532,3.18,3.18,0,0,1,.966-2.334,3.18,3.18,0,0,1,2.334-.966,3.18,3.18,0,0,1,2.334.966,3.18,3.18,0,0,1,.966,2.334,3.681,3.681,0,0,1-.33,1.532,6.169,6.169,0,0,1-.825,1.344q-.566.731-1.084,1.5a6.979,6.979,0,0,0-.825,1.662.249.249,0,0,1-.082.118A.238.238,0,0,1,96.5-861.142Zm0-1.956q.33-.5.672-.966t.719-.943a6.381,6.381,0,0,0,.684-1.1,2.776,2.776,0,0,0,.283-1.238,2.276,2.276,0,0,0-.684-1.674A2.276,2.276,0,0,0,96.5-869.7a2.276,2.276,0,0,0-1.674.684,2.276,2.276,0,0,0-.684,1.674,2.776,2.776,0,0,0,.283,1.238,6.38,6.38,0,0,0,.684,1.1q.377.471.719.943T96.5-863.1Zm0-3.064a1.138,1.138,0,0,1-.837-.342,1.138,1.138,0,0,1-.342-.837,1.138,1.138,0,0,1,.342-.837,1.138,1.138,0,0,1,.837-.342,1.138,1.138,0,0,1,.837.342,1.138,1.138,0,0,1,.342.837,1.138,1.138,0,0,1-.342.837A1.138,1.138,0,0,1,96.5-866.163Z" transform="translate(-80 880)"/>
</svg>
