<svg id="Grupo_1441" data-name="Grupo 1441" xmlns="http://www.w3.org/2000/svg" width="44" height="44" viewBox="0 0 44 44">
  <rect id="Retângulo_285" data-name="Retângulo 285" width="44" height="44" rx="7" fill="#2a3c56"/>
  <g id="Grupo_1440" data-name="Grupo 1440" transform="translate(14.058 9.451)">
    <g id="Preenchimento_de_Cor_2" data-name="Preenchimento de Cor 2" transform="translate(0 0)">
      <g id="Preenchimento_de_Cor_2-2" data-name="Preenchimento de Cor 2">
        <path id="Caminho_240" data-name="Caminho 240" d="M10.337,16.32l-.193.01-.588.07a12.091,12.091,0,0,0-1.384.294A8.124,8.124,0,0,0,4.1,19.457,6.446,6.446,0,0,0,2.977,21.43a9.4,9.4,0,0,0-.283,1.3,4.261,4.261,0,0,0,.01,1.076l.053.491a12.074,12.074,0,0,0,.408,1.652c.145.413.278.808.445,1.2l.545,1.2a13.363,13.363,0,0,0,.652,1.262l.535,1.042a10.3,10.3,0,0,1,.52,1.032l.454.946A13.4,13.4,0,0,1,7.06,34.71L7.4,36.3v.009c.284-.183.31-.822.31-1.3a7.606,7.606,0,0,0-.46-2.464c-.789-2.242-1.821-4.149-2.671-6.324a14.063,14.063,0,0,1-.493-1.609c-.053-.212-.069-.42-.111-.647a4.168,4.168,0,0,1-.043-1.171A6.179,6.179,0,0,1,4.2,21.542a6.583,6.583,0,0,1,2.858-2.988,13.559,13.559,0,0,1,1.732-.968l.93-.438.535-.225-.006.016a2.338,2.338,0,0,0,.262-.609C10.484,16.308,10.387,16.318,10.337,16.32Z" transform="translate(-2.664 -16.316)" fill="#fff"/>
      </g>
    </g>
    <g id="Preenchimento_de_Cor_1" data-name="Preenchimento de Cor 1" transform="translate(5.388 0.002)">
      <g id="Preenchimento_de_Cor_1-2" data-name="Preenchimento de Cor 1">
        <path id="Caminho_241" data-name="Caminho 241" d="M158.308,23.047c-.04-.257-.011-.5-.059-.732a5.9,5.9,0,0,0-.374-1.2,7.217,7.217,0,0,0-1.01-1.577c-.135-.171-.308-.313-.444-.483a6.88,6.88,0,0,0-1.353-1.166,8.071,8.071,0,0,0-4.788-1.507,4.085,4.085,0,0,1-.31.722l-.327.877-.406,1.347-.148.679c-.089.361-.1.726-.171,1.117q-.021.273-.043.545-.008.233-.016.465a3.436,3.436,0,0,0,.342,1.689c.148.256.332.6.62.716a.842.842,0,0,0,.513-.048,1.8,1.8,0,0,1,.732-.053,4.029,4.029,0,0,1,.5.1,2.072,2.072,0,0,1,1.283,1.138A1.759,1.759,0,0,1,153,26.718a2.815,2.815,0,0,1-2.245,1.913c-.418.116-1.17.31-1.406-.074-.175-.285.275-.524.449-.594.739-.291,1.861-.209,2.02-1.074a1.089,1.089,0,0,0-.069-.529.8.8,0,0,0-.342-.47,3.216,3.216,0,0,0-2.491.246,2.241,2.241,0,0,0-1,1.454c-.042.169-.031.337-.064.529a2.466,2.466,0,0,0,.027.742,3.039,3.039,0,0,0,.16.594,3.843,3.843,0,0,0,1.775,1.769,11,11,0,0,0,1.352.594c.141.058.45.133.513.256,0,.217-.6.27-.807.321-.6.148-1.222.238-1.326.882a1.875,1.875,0,0,0,.385.984,4.958,4.958,0,0,0,2.3,1.71c.3.131.631.245.951.358.094.033.275.094.374.022.117-.085.109-.27.144-.438q.1-.5.2-1a14.425,14.425,0,0,1,1.171-3.031l1.31-2.582a11.984,11.984,0,0,0,.583-1.176c.163-.368.347-.739.508-1.117a12.973,12.973,0,0,0,.764-2.561c.046-.233.03-.466.069-.716a2.5,2.5,0,0,0,.011-.677Z" transform="translate(-147.83 -16.379)" fill="#fff"/>
      </g>
    </g>
    <g id="Elipse_2" data-name="Elipse 2" transform="translate(5.567 22.111)">
      <g id="Elipse_2-2" data-name="Elipse 2">
        <ellipse id="Elipse_23" data-name="Elipse 23" cx="2.33" cy="0.601" rx="2.33" ry="0.601" fill="#fff"/>
        <ellipse id="Elipse_24" data-name="Elipse 24" cx="2.33" cy="0.601" rx="2.33" ry="0.601" fill="none" stroke="#000" stroke-width="0"/>
      </g>
    </g>
    <g id="Elipse_3" data-name="Elipse 3" transform="translate(5.054 20.412)">
      <g id="Elipse_3-2" data-name="Elipse 3">
        <ellipse id="Elipse_25" data-name="Elipse 25" cx="2.838" cy="0.62" rx="2.838" ry="0.62" fill="#fff"/>
        <ellipse id="Elipse_26" data-name="Elipse 26" cx="2.838" cy="0.62" rx="2.838" ry="0.62" fill="none" stroke="#000" stroke-width="0"/>
      </g>
    </g>
    <g id="Elipse_1" data-name="Elipse 1" transform="translate(5.997 23.83)">
      <g id="Elipse_1-2" data-name="Elipse 1">
        <ellipse id="Elipse_27" data-name="Elipse 27" cx="1.897" cy="0.634" rx="1.897" ry="0.634" fill="#fff"/>
        <ellipse id="Elipse_28" data-name="Elipse 28" cx="1.897" cy="0.634" rx="1.897" ry="0.634" fill="none" stroke="#000" stroke-width="0"/>
      </g>
    </g>
  </g>
</svg>
