<svg xmlns="http://www.w3.org/2000/svg" width="13.162" height="17.935" viewBox="0 0 13.162 17.935" fill="#404040">
  <path id="lightbulb_24dp_FFFFFF_FILL1_wght300_GRAD0_opsz24" d="M206.581-842.065a1.716,1.716,0,0,1-1.229-.494,1.768,1.768,0,0,1-.561-1.206h3.58a1.768,1.768,0,0,1-.561,1.206A1.716,1.716,0,0,1,206.581-842.065Zm-3.525-3v-1.41h7.051v1.41Zm.145-2.712a6.837,6.837,0,0,1-2.338-2.4,6.331,6.331,0,0,1-.862-3.241,6.349,6.349,0,0,1,1.916-4.664A6.349,6.349,0,0,1,206.581-860a6.349,6.349,0,0,1,4.664,1.916,6.349,6.349,0,0,1,1.916,4.664,6.331,6.331,0,0,1-.862,3.241,6.837,6.837,0,0,1-2.338,2.4Z" transform="translate(-200 860)"/>
</svg>
