<svg xmlns="http://www.w3.org/2000/svg" xmlns:xlink="http://www.w3.org/1999/xlink" width="60.591" height="71.238" viewBox="0 0 60.591 71.238">
  <defs>
    <filter id="location" x="0" y="0" width="60.591" height="71.238" filterUnits="userSpaceOnUse">
      <feOffset dy="3" input="SourceAlpha"/>
      <feGaussianBlur stdDeviation="3" result="blur"/>
      <feFlood flood-opacity="0.161"/>
      <feComposite operator="in" in2="blur"/>
      <feComposite in="SourceGraphic"/>
    </filter>
  </defs>
  <g id="Grupo_2133" data-name="Grupo 2133" transform="translate(48.625 16616.545)">
    <g id="Grupo_2078" data-name="Grupo 2078" transform="translate(3606.375 -16804.352)">
      <g id="Grupo_1296" data-name="Grupo 1296" transform="translate(-3646 193.807)">
        <g id="LOcation_icon" data-name="LOcation icon">
          <g transform="matrix(1, 0, 0, 1, -9, -6)" filter="url(#location)">
            <path id="location-2" data-name="location" d="M589.3,158.239c4.7,0,21.3-21.1,21.3-32.535S601.057,105,589.3,105,568,114.27,568,125.7,584.595,158.239,589.3,158.239Z" transform="translate(-559 -99)" fill="#ff9800" fill-rule="evenodd"/>
          </g>
        </g>
        <g id="lightbulb_black_24dp" transform="translate(5.836 6.336)">
          <path id="Caminho_25" data-name="Caminho 25" d="M0,0H30.919V30.919H0Z" fill="none"/>
        </g>
      </g>
    </g>
    <g id="Grupo_2132" data-name="Grupo 2132" transform="translate(1757.214 434.567)">
      <path id="Caminho_351" data-name="Caminho 351" d="M18.015,11.5V3H7.29V7.249H3V22.122h8.58V17.873h2.145v4.249H22.3V11.5ZM7.29,20H5.145V17.873H7.29Zm0-4.249H5.145V13.624H7.29Zm0-4.249H5.145V9.374H7.29Zm4.29,4.249H9.435V13.624H11.58Zm0-4.249H9.435V9.374H11.58Zm0-4.249H9.435V5.125H11.58Zm4.29,8.5H13.725V13.624H15.87Zm0-4.249H13.725V9.374H15.87Zm0-4.249H13.725V5.125H15.87ZM20.16,20H18.015V17.873H20.16Zm0-4.249H18.015V13.624H20.16Z" transform="translate(-1788.928 -17035.697)" fill="#fff"/>
      <path id="bolt_black_24dp" d="M9.238,13.412H8.679l.559-4.049H7.281c-.324,0-.319-.185-.212-.382s.028-.046.039-.069Q8.19,6.933,10.356,3h.559l-.559,4.049h1.957c.274,0,.313.191.263.3l-.039.087Q9.233,13.409,9.238,13.412Z" transform="translate(-1777.755 -17039.65)" fill="#fff"/>
    </g>
  </g>
</svg>
